<mxfile host="app.diagrams.net" modified="2024-05-13T00:44:37.008Z" agent="Mozilla/5.0 (Macintosh; Intel Mac OS X 10_15_7) AppleWebKit/605.1.15 (KHTML, like Gecko) Version/17.2 Safari/605.1.15" version="24.4.0" etag="ABFHXR024PCQ6MN4t7Vv" type="github">
  <diagram name="Page-1" id="nnIqbF1MQlh96jjC09a3">
    <mxGraphModel>
      <root>
        <mxCell id="0" />
        <mxCell id="1" parent="0" />
      </root>
    </mxGraphModel>
  </diagram>
</mxfile>
